<svg width="113" height="96" viewBox="0 0 113 96" fill="none" xmlns="http://www.w3.org/2000/svg">
<path d="M71.9363 80.4172C68.7799 80.4233 65.6536 79.7653 62.7374 78.4811C59.8212 77.1968 57.1728 75.3118 54.9447 72.9345C54.9052 72.8918 54.8755 72.84 54.8579 72.7832C54.8403 72.7264 54.8352 72.666 54.843 72.6068C54.8508 72.5475 54.8713 72.491 54.9029 72.4415C54.9345 72.392 54.9764 72.3509 55.0254 72.3214C57.7065 70.6674 60.1717 68.6459 62.3575 66.309C69.286 58.941 72.7503 49.7677 72.7503 38.7893C72.7503 27.6678 69.286 18.4221 62.3575 11.052C55.429 3.68196 46.7333 -0.00204279 36.2704 8.49786e-07C25.9459 8.49786e-07 17.3197 3.684 10.3918 11.052C3.46393 18.42 0 27.6658 0 38.7893C0 49.7691 3.46393 58.942 10.3918 66.3079C17.3197 73.6739 25.9459 77.3579 36.2704 77.36C36.8297 77.36 37.3841 77.3477 37.9338 77.3262C37.9932 77.3241 38.0522 77.3376 38.1056 77.3656C38.1589 77.3936 38.2049 77.4352 38.2394 77.4867C45.5196 88.2362 57.889 95.3154 71.9363 95.3154C89.7996 95.3154 104.959 83.871 110.375 67.9858C110.392 67.9322 110.399 67.8752 110.395 67.8187C110.39 67.7621 110.374 67.7073 110.347 67.6579C110.321 67.6086 110.285 67.5658 110.241 67.5327C110.198 67.4995 110.148 67.4766 110.096 67.4657L94.5775 64.2571C94.494 64.2401 94.4075 64.2545 94.3329 64.298C94.2584 64.3414 94.2004 64.4112 94.169 64.4952C92.3798 69.2048 89.3066 73.2375 85.3447 76.0749C81.3827 78.9123 76.7131 80.4245 71.9363 80.4172ZM17.1473 38.7893C17.1473 32.6768 18.9667 27.612 22.6056 23.5949C26.2444 19.5777 30.8339 17.5712 36.3742 17.5753C42.0554 17.5753 46.6808 19.5828 50.2504 23.5979C53.82 27.613 55.6039 32.6778 55.602 38.7924C55.602 44.8361 53.8181 49.8645 50.2504 53.8775C46.6827 57.8905 42.0573 59.9001 36.3742 59.9062C30.8326 59.9062 26.2431 57.88 22.6056 53.8274C18.968 49.7749 17.1486 44.7622 17.1473 38.7893Z" fill="#006AFF"/>
<path d="M97.5565 45.5579C97.4776 45.5583 97.4006 45.5318 97.337 45.4822C97.2733 45.4326 97.2263 45.3625 97.2029 45.2824C97.1796 45.2022 97.1811 45.1162 97.2072 45.037C97.2333 44.9578 97.2826 44.8897 97.348 44.8426L103.009 40.7144C106.299 38.3826 108.618 36.0059 109.967 33.5842C111.316 31.1625 111.991 28.4948 111.991 25.5813C111.991 21.1411 110.547 17.4864 107.658 14.6171C104.769 11.7479 100.563 10.3132 95.0388 10.3132C89.5991 10.3132 85.3299 11.8269 82.2311 14.8542C79.1971 17.8154 77.5871 21.839 77.4014 26.925C77.3987 27.0192 77.4274 27.1113 77.4824 27.1852C77.5375 27.259 77.6153 27.3098 77.7021 27.3286L87.9671 29.4611C88.0199 29.4717 88.0742 29.4699 88.1263 29.4558C88.1784 29.4417 88.2269 29.4157 88.2686 29.3796C88.3102 29.3435 88.3439 29.2982 88.3674 29.2468C88.3908 29.1954 88.4034 29.1391 88.4043 29.082C88.535 24.4178 90.6824 22.0853 94.8466 22.0846C96.32 22.0846 97.469 22.5328 98.2935 23.4293C99.118 24.3258 99.5293 25.4246 99.5274 26.7257C99.5274 29.4608 97.8617 32.1288 94.5304 34.7296L78.9908 47.0548C78.9448 47.0912 78.9075 47.1385 78.8818 47.193C78.8561 47.2475 78.8427 47.3076 78.8428 47.3685V56.3319C78.8427 56.3834 78.8521 56.4343 78.8705 56.4819C78.889 56.5294 78.9161 56.5726 78.9503 56.609C78.9845 56.6453 79.0251 56.6741 79.0698 56.6938C79.1146 56.7134 79.1625 56.7234 79.2108 56.7233H112.631C112.679 56.7234 112.727 56.7134 112.772 56.6938C112.817 56.6742 112.858 56.6454 112.892 56.609C112.926 56.5727 112.953 56.5295 112.972 56.4819C112.99 56.4344 113 56.3834 113 56.3319V45.9502C113 45.8462 112.961 45.7464 112.892 45.6728C112.823 45.5992 112.729 45.5579 112.631 45.5579H97.5565Z" fill="#006AFF"/>
</svg>
